<svg width="587.035009765625px" height="122.021240234375px" xmlns="http://www.w3.org/2000/svg" viewBox="-43.51750488281249 13.9893798828125 587.035009765625 122.021240234375" style="background: rgba(0, 0, 0, 0);" preserveAspectRatio="xMidYMid"><defs><filter id="editing-extrusion" x="-100%" y="-100%" width="300%" height="300%"><feFlood result="color1" flood-color="#444"></feFlood><feConvolveMatrix order="8,8" divisor="1" kernelMatrix="1 0 0 0 0 0 0 0 0 1 0 0 0 0 0 0 0 0 1 0 0 0 0 0 0 0 0 1 0 0 0 0 0 0 0 0 1 0 0 0 0 0 0 0 0 1 0 0 0 0 0 0 0 0 1 0 0 0 0 0 0 0 0 1" in="SourceAlpha" result="extrude"></feConvolveMatrix><feComposite in="color1" in2="extrude" result="comp-extrude" operator="in"></feComposite><feOffset dx="4" dy="4" in="comp-extrude" result="offset-extrude"></feOffset><feMerge><feMergeNode in="offset-extrude"></feMergeNode><feMergeNode in="SourceGraphic"></feMergeNode></feMerge></filter></defs><g filter="url(#editing-extrusion)"><g transform="translate(40.65375065803528, 97.22281265258789)"><path d="M2.30-9.47L2.30-9.47L2.30-9.47Q2.30-11.97 2.94-15.17L2.94-15.17L8.13-42.24L22.27-42.24L17.15-14.98L17.15-14.98Q16.58-11.97 16.58-9.76L16.58-9.76L16.58-9.76Q16.58-7.55 17.50-6.40L17.50-6.40L17.50-6.40Q18.43-5.25 20.16-5.25L20.16-5.25L20.16-5.25Q21.89-5.25 22.98-5.70L22.98-5.70L22.98-5.70Q24.06-6.14 24.96-7.23L24.96-7.23L24.96-7.23Q26.69-9.41 27.78-14.98L27.78-14.98L32.96-42.24L42.62-42.24L37.50-15.04L37.50-15.04Q35.71-5.95 30.78-2.30L30.78-2.30L30.78-2.30Q25.98 1.28 16.51 1.28L16.51 1.28L16.51 1.28Q9.41 1.28 5.63-1.79L5.63-1.79L5.63-1.79Q2.30-4.48 2.30-9.47ZM50.50 0L43.46 0L51.14-42.24L64.90-42.24L74.88-13.18L80.19-42.24L87.30-42.18L79.49 0L64.83 0L55.62-27.97L50.50 0ZM102.14 0L88.19 0L96.32-42.24L110.40-42.24L102.14 0ZM113.41-39.68L113.41-39.68L113.41-39.68Q115.26-43.52 120.42-43.52L120.42-43.52L120.42-43.52Q125.57-43.52 127.97-40.54L127.97-40.54L127.97-40.54Q130.37-37.57 130.37-30.72L130.37-30.72L130.37-7.87L145.92-42.18L153.54-42.18L133.63 0L118.66 0L116.74-30.72L116.74-30.72Q116.54-34.11 115.62-36.42L115.62-36.42L115.62-36.42Q114.69-38.72 113.41-39.68ZM178.30-9.86L178.30-9.86L178.30-9.86Q179.52-8.32 179.52-5.82L179.52-5.82L179.52-5.82Q179.52-2.37 176.96-0.54L176.96-0.54L176.96-0.54Q174.40 1.28 170.37 1.28L170.37 1.28L170.37 1.28Q168.06 1.28 164.54 0.77L164.54 0.77L164.54 0.77Q157.63-0.32 155.52-0.32L155.52-0.32L155.52-0.32Q153.41-0.32 152.58-0.22L152.58-0.22L152.58-0.22Q151.74-0.13 150.40 0L150.40 0L158.27-42.24L185.86-42.24L185.86-42.24Q185.86-38.34 183.97-36.29L183.97-36.29L183.97-36.29Q182.08-34.24 178.37-34.24L178.37-34.24L178.37-34.24Q174.66-34.24 170.88-35.97L170.88-35.97L168.90-24.77L180.29-24.77L180.29-24.77Q180.29-21.38 178.62-19.49L178.62-19.49L178.62-19.49Q176.96-17.60 174.18-17.60L174.18-17.60L174.18-17.60Q171.39-17.60 169.66-18.24L169.66-18.24L169.66-18.24Q167.94-18.88 167.74-19.07L167.74-19.07L165.44-6.98L165.44-6.98Q166.98-6.78 169.86-6.78L169.86-6.78L169.86-6.78Q174.78-6.78 178.30-9.86ZM198.53 0L184.83 0L192.64-42.05L192.64-42.05Q198.98-42.75 208.22-42.75L208.22-42.75L208.22-42.75Q217.47-42.75 221.76-40.06L221.76-40.06L221.76-40.06Q226.05-37.38 226.05-31.97L226.05-31.97L226.05-31.97Q226.05-26.56 223.26-23.17L223.26-23.17L223.26-23.17Q220.48-19.78 215.68-18.69L215.68-18.69L215.68-18.69Q216.77-13.38 219.26-9.09L219.26-9.09L219.26-9.09Q221.57-5.06 224.26-3.78L224.26-3.78L224.26-3.78Q223.30-1.09 221.34 0.10L221.34 0.10L221.34 0.10Q219.39 1.28 216.61 1.28L216.61 1.28L216.61 1.28Q213.82 1.28 211.65-0.35L211.65-0.35L211.65-0.35Q209.47-1.98 207.74-4.99L207.74-4.99L207.74-4.99Q204.10-11.52 203.71-21.82L203.71-21.82L204.16-21.82L204.16-21.82Q208.90-21.95 211.26-24.42L211.26-24.42L211.26-24.42Q213.63-26.88 213.63-32.06L213.63-32.06L213.63-32.06Q213.63-38.53 208.19-38.78L208.19-38.78L206.78-38.78L206.78-38.78Q206.21-38.78 205.89-38.72L205.89-38.72L198.53 0ZM253.95-29.57L253.95-29.57L253.95-29.57Q254.91-31.49 254.91-33.28L254.91-33.28L254.91-33.28Q254.91-35.07 254.72-36.06L254.72-36.06L254.72-36.06Q254.53-37.06 254.08-37.82L254.08-37.82L254.08-37.82Q253.12-39.49 251.20-39.49L251.20-39.49L251.20-39.49Q248.83-39.49 246.91-37.76L246.91-37.76L246.91-37.76Q244.86-35.97 244.86-33.15L244.86-33.15L244.86-33.15Q244.86-31.36 246.11-29.98L246.11-29.98L246.11-29.98Q247.36-28.61 249.28-27.33L249.28-27.33L249.28-27.33Q251.20-26.05 253.38-24.77L253.38-24.77L253.38-24.77Q255.55-23.49 257.47-21.95L257.47-21.95L257.47-21.95Q261.89-18.43 261.89-13.70L261.89-13.70L261.89-13.70Q261.89-10.50 260.19-7.78L260.19-7.78L260.19-7.78Q258.50-5.06 255.68-3.07L255.68-3.07L255.68-3.07Q249.54 1.28 241.41 1.28L241.41 1.28L241.41 1.28Q234.82 1.28 231.42-0.86L231.42-0.86L231.42-0.86Q228.03-3.01 228.03-6.27L228.03-6.27L228.03-6.27Q228.03-12.10 232.58-13.57L232.58-13.57L232.58-13.57Q233.86-14.02 235.81-14.02L235.81-14.02L235.81-14.02Q237.76-14.02 240-13.18L240-13.18L240-13.18Q238.98-10.56 238.98-8.19L238.98-8.19L238.98-8.19Q238.98-3.07 242.62-3.07L242.62-3.07L242.62-3.07Q244.99-3.07 246.94-4.80L246.94-4.80L246.94-4.80Q248.90-6.53 248.90-8.48L248.90-8.48L248.90-8.48Q248.90-10.43 247.65-11.84L247.65-11.84L247.65-11.84Q246.40-13.25 244.54-14.37L244.54-14.37L244.54-14.37Q242.69-15.49 240.54-16.58L240.54-16.58L240.54-16.58Q238.40-17.66 236.54-19.20L236.54-19.20L236.54-19.20Q232.19-22.72 232.19-28.35L232.19-28.35L232.19-28.35Q232.19-32 233.98-34.85L233.98-34.85L233.98-34.85Q235.78-37.70 238.66-39.62L238.66-39.62L238.66-39.62Q244.42-43.52 251.49-43.52L251.49-43.52L251.49-43.52Q258.56-43.52 261.98-41.41L261.98-41.41L261.98-41.41Q265.41-39.30 265.41-35.71L265.41-35.71L265.41-35.71Q265.41-32.58 262.98-30.59L262.98-30.59L262.98-30.59Q260.86-28.93 258.30-28.93L258.30-28.93L258.30-28.93Q255.74-28.93 253.95-29.57ZM280 0L266.05 0L274.18-42.24L288.26-42.24L280 0ZM294.78-31.17L294.78-31.17L294.78-31.17Q292.61-32.83 292.61-36.38L292.61-36.38L292.61-36.38Q292.61-39.94 294.94-41.79L294.94-41.79L294.94-41.79Q297.28-43.65 301.31-43.65L301.31-43.65L301.31-43.65Q303.87-43.65 309.95-42.75L309.95-42.75L314.30-42.11L314.30-42.11Q316.48-41.86 318.75-41.86L318.75-41.86L318.75-41.86Q321.02-41.86 322.56-42.82L322.56-42.82L322.56-42.82Q324.86-40.77 324.86-37.82L324.86-37.82L324.86-37.82Q324.86-34.88 322.24-32.77L322.24-32.77L322.24-32.77Q319.55-30.53 316.10-30.53L316.10-30.53L316.10-30.53Q314.43-30.53 311.74-30.98L311.74-30.98L311.74-30.98Q308.61-21.12 308.61-14.27L308.61-14.27L308.61-14.27Q308.61-7.42 312.06-3.84L312.06-3.84L312.06-3.84Q310.46-0.96 308.10 0.16L308.10 0.16L308.10 0.16Q305.73 1.28 302.18 1.28L302.18 1.28L302.18 1.28Q298.62 1.28 296.42-0.67L296.42-0.67L296.42-0.67Q294.21-2.62 294.21-6.66L294.21-6.66L294.21-6.66Q294.21-11.33 296.77-19.01L296.77-19.01L296.77-19.01Q299.33-26.62 303.17-32.45L303.17-32.45L303.17-32.45Q301.31-32.64 299.39-32.64L299.39-32.64L299.39-32.64Q295.42-32.64 294.78-31.17ZM336.06 0L322.11 0L330.24-42.24L344.32-42.24L336.06 0ZM373.06-9.86L373.06-9.86L373.06-9.86Q374.27-8.32 374.27-5.82L374.27-5.82L374.27-5.82Q374.27-2.37 371.71-0.54L371.71-0.54L371.71-0.54Q369.15 1.28 365.12 1.28L365.12 1.28L365.12 1.28Q362.82 1.28 359.30 0.77L359.30 0.77L359.30 0.77Q352.38-0.32 350.27-0.32L350.27-0.32L350.27-0.32Q348.16-0.32 347.33-0.22L347.33-0.22L347.33-0.22Q346.50-0.13 345.15 0L345.15 0L353.02-42.24L380.61-42.24L380.61-42.24Q380.61-38.34 378.72-36.29L378.72-36.29L378.72-36.29Q376.83-34.24 373.12-34.24L373.12-34.24L373.12-34.24Q369.41-34.24 365.63-35.97L365.63-35.97L363.65-24.77L375.04-24.77L375.04-24.77Q375.04-21.38 373.38-19.49L373.38-19.49L373.38-19.49Q371.71-17.60 368.93-17.60L368.93-17.60L368.93-17.60Q366.14-17.60 364.42-18.24L364.42-18.24L364.42-18.24Q362.69-18.88 362.50-19.07L362.50-19.07L360.19-6.98L360.19-6.98Q361.73-6.78 364.61-6.78L364.61-6.78L364.61-6.78Q369.54-6.78 373.06-9.86ZM405.12-29.57L405.12-29.57L405.12-29.57Q406.08-31.49 406.08-33.28L406.08-33.28L406.08-33.28Q406.08-35.07 405.89-36.06L405.89-36.06L405.89-36.06Q405.70-37.06 405.25-37.82L405.25-37.82L405.25-37.82Q404.29-39.49 402.37-39.49L402.37-39.49L402.37-39.49Q400.00-39.49 398.08-37.76L398.08-37.76L398.08-37.76Q396.03-35.97 396.03-33.15L396.03-33.15L396.03-33.15Q396.03-31.36 397.28-29.98L397.28-29.98L397.28-29.98Q398.53-28.61 400.45-27.33L400.45-27.33L400.45-27.33Q402.37-26.05 404.54-24.77L404.54-24.77L404.54-24.77Q406.72-23.49 408.64-21.95L408.64-21.95L408.64-21.95Q413.06-18.43 413.06-13.70L413.06-13.70L413.06-13.70Q413.06-10.50 411.36-7.78L411.36-7.78L411.36-7.78Q409.66-5.06 406.85-3.07L406.85-3.07L406.85-3.07Q400.70 1.28 392.58 1.28L392.58 1.28L392.58 1.28Q385.98 1.28 382.59-0.86L382.59-0.86L382.59-0.86Q379.20-3.01 379.20-6.27L379.20-6.27L379.20-6.27Q379.20-12.10 383.74-13.57L383.74-13.57L383.74-13.57Q385.02-14.02 386.98-14.02L386.98-14.02L386.98-14.02Q388.93-14.02 391.17-13.18L391.17-13.18L391.17-13.18Q390.14-10.56 390.14-8.19L390.14-8.19L390.14-8.19Q390.14-3.07 393.79-3.07L393.79-3.07L393.79-3.07Q396.16-3.07 398.11-4.80L398.11-4.80L398.11-4.80Q400.06-6.53 400.06-8.48L400.06-8.48L400.06-8.48Q400.06-10.43 398.82-11.84L398.82-11.84L398.82-11.84Q397.57-13.25 395.71-14.37L395.71-14.37L395.71-14.37Q393.86-15.49 391.71-16.58L391.71-16.58L391.71-16.58Q389.57-17.66 387.71-19.20L387.71-19.20L387.71-19.20Q383.36-22.72 383.36-28.35L383.36-28.35L383.36-28.35Q383.36-32 385.15-34.85L385.15-34.85L385.15-34.85Q386.94-37.70 389.82-39.62L389.82-39.62L389.82-39.62Q395.58-43.52 402.66-43.52L402.66-43.52L402.66-43.52Q409.73-43.52 413.15-41.41L413.15-41.41L413.15-41.41Q416.58-39.30 416.58-35.71L416.58-35.71L416.58-35.71Q416.58-32.58 414.14-30.59L414.14-30.59L414.14-30.59Q412.03-28.93 409.47-28.93L409.47-28.93L409.47-28.93Q406.91-28.93 405.12-29.57Z" fill="#ccc"></path></g></g><style>text {
  font-size: 64px;
  font-family: Arial Black;
  dominant-baseline: central;
  text-anchor: middle;
}</style></svg>